#!OML:ASF F:\VICON\USERDATA\INSTALL\rory3\rory3.ASF
:FULLY-SPECIFIED
:DEGREES
2018
root -1.23142 15.7327 -3.67139 170.328 144.144 182.796
lowerback 21.333 0.455638 -1.65956
upperback 11.8786 0.691483 1.38763
thorax 0.9711 0.374966 2.28437
lowerneck -19.7678 0.603863 -8.37984
upperneck 33.2132 3.4137 2.59651
head 14.6183 0.862475 3.1651
rclavicle 3.85642e-014 7.95139e-016
rhumerus -28.9636 12.5866 -83.7113
rradius 82.8732
rwrist 25.503
rhand -30.3779 10.7145
rfingers 7.12502
rthumb -3.68242 -19.2334
lclavicle 3.85642e-014 7.95139e-016
lhumerus -23.5096 -3.42663 80.8784
lradius 81.8097
lwrist -16.6916
lhand -38.9757 13.045
lfingers 7.12502
lthumb -11.9802 42.6821
rfemur -54.4835 -30.8584 17.3599
rtibia 101.344
rfoot -5.8083 -0.490825
rtoes 3.34013
lfemur -93.2064 52.2163 -39.2812
ltibia 136.061
lfoot -2.73492 -18.9094
ltoes -12.5481
2019
root -1.23121 15.7314 -3.67178 170.292 144.112 182.791
lowerback 21.3232 0.451422 -1.6732
upperback 11.9027 0.68526 1.40404
thorax 1.00272 0.370541 2.31118
lowerneck -19.7811 0.617182 -8.4117
upperneck 33.1797 3.43014 2.63474
head 14.6028 0.871924 3.18808
rclavicle -6.1822e-014 4.05521e-014
rhumerus -28.9179 12.5704 -83.6745
rradius 82.8556
rwrist 25.481
rhand -30.3552 10.6362
rfingers 7.12502
rthumb -3.66046 -19.3121
lclavicle -6.1822e-014 4.05521e-014
lhumerus -23.5676 -3.5129 80.8622
lradius 81.981
lwrist -16.6039
lhand -38.9354 12.9754
lfingers 7.12502
lthumb -11.9413 42.6149
rfemur -54.4421 -30.8892 17.3299
rtibia 101.349
rfoot -5.81733 -0.4439
rtoes 3.53122
lfemur -93.1296 52.1121 -39.2778
ltibia 135.997
lfoot -2.5888 -18.8003
ltoes -12.7513
2020
root -1.23114 15.729 -3.67239 170.339 144.129 182.85
lowerback 21.2825 0.462906 -1.78443
upperback 11.9094 0.681088 1.4251
thorax 1.03022 0.361597 2.39794
lowerneck -19.7919 0.648255 -8.4823
upperneck 33.1497 3.48639 2.67412
head 14.5848 0.893461 3.22499
rclavicle 6.63941e-014 -3.97569e-015
rhumerus -28.8752 12.6413 -83.6327
rradius 82.8463
rwrist 25.4778
rhand -30.2235 10.4466
rfingers 7.12502
rthumb -3.53331 -19.5039
lclavicle 6.63941e-014 -3.97569e-015
lhumerus -23.7506 -3.6122 80.8146
lradius 82.3358
lwrist -16.413
lhand -38.9322 12.7559
lfingers 7.12502
lthumb -11.9383 42.3955
rfemur -54.4853 -30.8777 17.2988
rtibia 101.362
rfoot -5.79263 -0.436629
rtoes 3.62427
lfemur -93.1908 52.0462 -39.4142
ltibia 135.955
lfoot -2.45617 -18.701
ltoes -12.9159
2021
root -1.23109 15.7296 -3.67374 170.306 144.163 182.804
lowerback 21.2819 0.469469 -1.76725
upperback 11.9076 0.692663 1.44848
thorax 1.02772 0.367317 2.41085
lowerneck -19.815 0.680107 -8.49653
upperneck 33.1428 3.53786 2.68081
head 14.5824 0.914588 3.23918
rclavicle -1.41137e-014 8.74653e-015
rhumerus -28.8704 12.6228 -83.6349
rradius 82.8262
rwrist 25.512
rhand -30.2703 10.2562
rfingers 7.12502
rthumb -3.5785 -19.6935
lclavicle -1.41137e-014 8.74653e-015
lhumerus -23.8336 -3.70326 80.8141
lradius 82.512
lwrist -16.2787
lhand -38.9568 12.5579
lfingers 7.12502
lthumb -11.962 42.1961
rfemur -54.4732 -30.8377 17.3478
rtibia 101.347
rfoot -5.75149 -0.458387
rtoes 3.64336
lfemur -93.2067 52.1086 -39.3487
ltibia 135.946
lfoot -2.23628 -18.8182
ltoes -12.5811
2022
root -1.23042 15.732 -3.6741 170.29 144.193 182.833
lowerback 21.2726 0.488293 -1.79461
upperback 11.9298 0.712993 1.44788
thorax 1.05563 0.375952 2.42198
lowerneck -19.8333 0.676672 -8.567
upperneck 33.0686 3.53776 2.73041
head 14.5497 0.915078 3.26902
rclavicle -3.24019e-014 2.14687e-014
rhumerus -28.8565 12.5746 -83.6253
rradius 82.8381
rwrist 25.4555
rhand -30.2767 10.348
rfingers 7.12502
rthumb -3.58466 -19.6016
lclavicle -3.24019e-014 2.14687e-014
lhumerus -23.785 -3.78399 80.8427
lradius 82.4871
lwrist -16.1855
lhand -39.0522 12.5609
lfingers 7.12502
lthumb -12.054 42.1937
rfemur -54.4024 -30.8109 17.3006
rtibia 101.32
rfoot -5.71077 -0.426202
rtoes 3.68393
lfemur -93.1266 52.152 -39.3513
ltibia 135.902
lfoot -2.16279 -18.877
ltoes -12.7187
2023
root -1.2301 15.7327 -3.67328 170.3 144.207 182.897
lowerback 21.2455 0.508163 -1.88261
upperback 11.9505 0.724083 1.44291
thorax 1.09129 0.376868 2.46481
lowerneck -19.8725 0.671874 -8.61262
upperneck 33.0509 3.53336 2.77625
head 14.5484 0.914114 3.29509
rclavicle -2.10712e-014 1.51076e-014
rhumerus -28.835 12.5655 -83.6226
rradius 82.849
rwrist 25.3412
rhand -30.0379 10.5384
rfingers 7.12502
rthumb -3.35405 -19.415
lclavicle -2.10712e-014 1.51076e-014
lhumerus -23.7575 -3.82249 80.8509
lradius 82.4749
lwrist -16.1333
lhand -39.0993 12.4762
lfingers 7.12502
lthumb -12.0994 42.1064
rfemur -54.3446 -30.8131 17.2348
rtibia 101.275
rfoot -5.67303 -0.41221
rtoes 3.70512
lfemur -93.1052 52.1605 -39.4388
ltibia 135.866
lfoot -2.12708 -18.8806
ltoes -13.0788
2024
root -1.2279 15.7326 -3.67209 170.315 144.222 182.924
lowerback 21.171 0.51197 -1.934
upperback 11.9591 0.720393 1.43334
thorax 1.13774 0.371873 2.48497
lowerneck -19.8522 0.708558 -8.52956
upperneck 33.0483 3.56644 2.74183
head 14.5422 0.933963 3.27172
rclavicle 1.17084e-013 -6.67916e-014
rhumerus -28.8283 12.582 -83.6477
rradius 82.8159
rwrist 25.2346
rhand -29.9672 10.6242
rfingers 7.12502
rthumb -3.28576 -19.3302
lclavicle 1.17084e-013 -6.67916e-014
lhumerus -23.7267 -3.82876 80.8082
lradius 82.4243
lwrist -16.0995
lhand -39.1102 12.4423
lfingers 7.12502
lthumb -12.1099 42.0718
rfemur -54.32 -30.8042 17.203
rtibia 101.226
rfoot -5.62202 -0.367246
rtoes 4.10349
lfemur -93.0982 52.1857 -39.4702
ltibia 135.865
lfoot -2.02642 -18.9174
ltoes -13.0571
